<svg xmlns="http://www.w3.org/2000/svg" width="378" height="57" fill="none" viewBox="0 0 378 57">
  <g class="Group 1">
    <g class="Welcome To">
      <g class="Group">
        <g class="Group">
          <path fill="#1E40AF" fill-opacity=".4" d="M6.474 55.99c-.073.208.281 1.12.703.911.698-.422.14-1.193.698-1.406.635.213-.276 1.406 2.318 1.406h.635l.208-.281c-.067 0-.208-.14-.208-.214v-.208c0-.073.14-.209.208-.209 0 0 .073-.072.141-.072l.073.072c.068.068.63.558.703.63.068.068.281.068.281.068 0-.208-.073-.348-.28-.49l.489-1.405c.421.494.28-.35 1.125-.63 0 0 .14-.141.208-.214.422-.63 1.125-2.875 1.125-3.578v-.073c0-.068-.14-.208-.213-.208.494-.495 1.124-3.511 1.124-4.146l-.208-.209c0-.073.209-.635.209-.703.213-.844 1.057-5.687 1.406-6.11l.208-.213c.495-2.458 2.037-7.932 3.656-9.76l-.494.208c.562-.49.843-1.26 1.406-1.26 0 2.104.703 3.932 1.125 6.036 1.052.422.698 2.88 1.333 3.162h.208c.355.562 1.474 2.953 1.615 3.442.073.209.354.985.422 1.125.281.563.844.98 1.198 1.542 1.4 2.88 3.578 5.62 5.687 8.01.068.141.985 1.401 1.125 1.542.839.917 2.667 1.406 3.86 1.406 1.265 0 1.547-1.125 2.88-1.125 0-1.125 1.614-.703 1.896-1.406l-.282-.208c.704-1.052 1.547-.49 1.547-1.828h.282l.703-1.334c-.073.073-.355.214-.422.214-.14 0-.422-.14-.495-.214.281-.63.917-.14 1.125-1.192 0 0-.208-.35-.208-.422l.208-.209c.495-.916.354-1.265.703-2.036h-.208c-.073 0-.917.417-1.057.417h-.068l.422-.912.208.214c.703-.422.77-1.62 1.125-2.25h-.213c-.417 0-.698.14-1.12.495.067-.776.281-.282.703-.704.276-.28.698-1.895.698-2.317h-.281v-.214l-.417.495c0-.073-.073-.14-.073-.14 0-.777.984-1.266 1.193-1.896h-.209a18.92 18.92 0 0 0-1.125.416c.355-.698.771-.63 1.125-1.12.563-.843.14-1.828.912-2.74-.563.141-1.125.423-1.615.704l.422-.917.281.214.422-.422v-2.11c-.14 0-.354.073-.422.282 0-.068-.073-.14-.073-.14l.073-.142c.068-.067.844-.77.912-.911 0 0 .073-.068.073-.14-.282 0-.422-.068-.563-.282.14-.14.844-.77.912-.911l.072-.214h-.984c.068-.281.422-.281.63-.281 0-.557.563-1.964.985-2.245-.073 0-.495-.63-.495-.703 0-.281.14-.77.563-.77 0-.563-.35-.563-.35-.985 0-.068.068-.209.068-.282l.214.282c.63-.912.562-3.51.703-4.354-.214.067-1.198-.209-1.198-.422 0-.844.354-.35.703-.35v.069h.354c0-.141.068-.771.14-.912 0-.073.142-.14.21-.213-.282-.141-.844-.771-.844-.912h.703c0-.422-.35-.422-.35-.77v-.141c.068 0 .209-.355.282-.422.068-.214.208-.703.208-.703 0-.068-.14-.35-.208-.422-.073-.068-.14-.14-.214-.14 0 .213 0 .702-.28.77-.069 0-.21-.349-.21-.417 0-.073.423-.635.423-.703l.067-.073c0-.068-.067-.14-.067-.14 0-.068-.141-.209-.214-.209h-.208c-.63-.984-.563-2.531-.495-3.443-.136.073-.77-.067-.911-.208-.068-.073.072-1.057 0-1.125-.068-.844-1.474-.422-1.756-1.406l-.911.495c0-.422-.214-.495-.495-.495-.349 0-.838.562-1.12.703v-.49c-.422 0-2.39 2.178-2.531 2.105-3.51 3.02-3.089 9.765-3.37 14.046 0 .141-.14.771-.213.912-.068.073-.276.422-.276.495 0 .14.067 1.614 0 1.823 0 .073-.141.354-.214.422v2.53c-.14 0-.422.35-.422.423-.067.14.214.838.214.911 0 1.125-.563 2.104-.563 3.162h.209c0 1.26-.49.208-.49 1.192h.349c-.208.422 0 1.407-.703 1.407 0 .14.14.349.281.422l-.49.416c-.77-.63-1.265-1.896-1.755-2.734a138.622 138.622 0 0 0-1.406-2.037h-.208c-.14-.984-.776-1.479-.917-2.041-.068-.276-.208-.912-.208-.912h-.282c0-.49-.28-.844-.208-1.333l-.422.208v-.208c0-.14.14-.63.209-.703 0 .14-.35.281-.422.213-.563-.281-.703-1.76-.703-2.036l-.209.416s-.073-.14-.073-.208c0-.281.073-.422.282-.703l-.49.281c0-.14-.14-.63-.213-.703-.209-.422-1.12-2.318-1.334-2.74.073-.208-.14-.562-.281-.703-.068-.14-.771-1.12-.912-1.333l.073-.068c.276-.354.417-.635.417-1.052 0-.916-.77-.562-1.26-.562 0-.354.422-.917-.355-1.058-.77-.14-3.51 1.756-4.073 2.318-.77.703-3.65 3.516-4.072 4.073-.422.495-2.177 2.88-2.526 3.375h-.282c0-1.125.209-1.057-.14-2.458-.214-.703-.704-1.058-.704-1.828h.282c0-.844-.422-1.756-.495-2.526a48.118 48.118 0 0 0-1.823-7.516c-.213-.563-.213-1.193-.495-1.755-.14-.495-.416-.14-.838-.14 0-.777.208-1.407.208-2.178v-.917c-.63-.416-.562-1.12-1.474-1.12h-.14c-.073 0-.422.282-.422.209-.771-.14-1.125-.912-2.11-.912-2.734 0-1.682 3.651-2.453 3.865.068.068.208.208.208.276v.213c0 .068-.14.209-.208.209v2.953c0 4.14.276 8.146.208 12.292l.209.416v5.058l.354.635v8.427c0 1.266.068 7.797.14 9.339 0 .213.209 2.25.209 2.458v1.615l.213.213v1.683c.63 0 .63-.141.63-.558v-.14l.282-.073c.208.073.984.422 1.125.495Zm9.833-17.771c.209 0 .209.49 0 .49-.281 0-.281-.49 0-.49Zm-3.864-9.76c.208 0 .208.489 0 .489-.282 0-.282-.49 0-.49Zm11.099-4.079c.14 0 .14.214 0 .214-.141 0-.141-.214 0-.214Zm17.062-7.302c.214 0 .214.49 0 .49-.208 0-.208-.49 0-.49Zm-29.776-1.125c.208 0 .208.495 0 .495-.213 0-.213-.495 0-.495Zm30.198-1.823c.281 0 .281.49 0 .49-.208 0-.208-.49 0-.49Z" class="Vector"/>
        </g>
      </g>
      <g class="Group">
        <g class="Group">
          <path fill="#1E40AF" fill-opacity=".4" d="M80.562 43.766c.14-.282-.281-2.318-.208-2.6.14-.348.068-1.541.422-1.682h-.495c0-.495.422-.495-.349-.843l-.562.63v-.209c.072-.14.28-.776.349-.843-.35.349-.558 1.192-1.26 1.265v-.213c.14-.209.562-1.125.702-1.266-.073 0-.213-.14-.213-.208h-.14c-.985 0-2.037.703-2.808 1.265l-.563.63h.209l-.422.422c0-.067-.068-.14-.068-.14-.49.562-1.052 1.193-1.052 1.193l.208-.422c-.49.073-.422.28-.562.635-.35.49-.422.068-1.12.422-.14.14-.703.63-.776.839v-.209c-.49.14-1.474.912-1.755 1.334v-.282c-.771.636-2.037 1.407-3.089 1.407h-.213a4.626 4.626 0 0 0-1.474-2.037h.495c0-.213-.141-1.266-.282-1.266h-.213v-1.682h-.282c0-1.057-.208-1.479-.208-2.318h-.14v-.213c0-.068.208-.35.208-.35l-.209-.213c0-.067.209-.421.209-.49 0 0 .073-.28.073-.353h-.495v-4.214l.213-.422 2.74-1.12c1.401-.494 8.776-4.354 8.776-6.109 0-.703-.422-.917-.984-.917v-.208c-.209 0-.98-.073-1.12-.073l-.214-.208c-.562 0-3.02.844-3.37 1.125-.072 0-.348.349-.421.416-.068 0-.49-.208-.563-.208-.14 0-.911.281-1.052.422v-.213c-.844.843-2.807.213-3.37 1.479.068-.282-.14-.563-.213-.704v-3.51c0-.073-.209-.776-.209-.844v-.14c0-.073.141-.214.209-.214V17.5l.213-.208-.213-.214v-1.474c0-.073-.209-.562-.209-.63 0-.703.49-1.125 1.126-1.48-.073-.067 0-.348.135-.348.073 0 .14.067.14.208l.282-.208.073-.073c.067 0 .14.073.14.073l.209.208c.073 0 .422-.14.422-.208l-.209-.214s.985.14 1.052-.208l.209.208c.213-.698 3.234-1.682 5.13-2.385-.073.14 0 .281.14.281.141 0 .209-.213.068-.349.776-.281 1.266-.495 1.339-.703 2.593-1.266 5.192-2.25 7.791-3.516.563-.276.776-1.26.776-1.682h-.776l.636-.422-.214-.213h-2.807c.14-.068.984-.141 1.125-.49-.214-.281-.563-.349-.984-.349-.776 0-1.688 0-2.25.563v-.214h-.98c-.073 0-4.005.911-5.62 1.333-1.614.282-5.62 1.615-6.953 2.672l-.635.63c-.208.141-1.964.563-2.245.985-.073-.214-.354-.985-.843-.985-.068 0-.422.209-.49.209 0 0-.14-.068-.214-.068v-.208c-1.052 0-2.666 2.458-2.88 3.229-.14.422-.562 2.667-.698 3.088-.14.985-.562 2.25-.562 3.162 0 .068.14.63.14.63 0 .14-.14.281-.213.281v1.615l-.35.281c.282 2.672-.843 5.058-.702 7.938-.282.213-.214.63-.214.984 0 .703.282 1.333.282 2.104 0 .214.072.563-.282.636v1.474l-.208.208c.208.635.208.844.208 1.48 0 .63-.208 1.192-.208 1.822v.073c.068 0 .208.208.208.208v.14c0 .423-.14 1.548-.208 1.688 0 .068-.208.563-.208.63 0 1.829.63 9.13 1.895 10.678.209.208 1.401 1.4 1.756 1.682.067 0 .349.214.349.214.635.562.14.421 1.125.843.349.14.984.422.984.422v.14c.281-.14.422-.14.703-.14h.208c.141 0 .703.276.703.35l-.14.207c.14.282.911.563.911.917h.355v.14c1.052 0 2.104.423 3.229.423h.562c.068 0 10.672-4.636 13.552-11.802Z" class="Vector"/>
        </g>
      </g>
      <g class="Group">
        <g class="Group">
          <path fill="#1E40AF" fill-opacity=".4" d="M93.484 53.672c.068 0 .14.135.14.208h.069c.213 0 .213.422 0 .422h-.068c.562.281 1.052.563 1.614.77-.067-.14 0-.28.141-.28.14 0 .208.28.073.354.068.068.208.068.276.068-.14.072-.14.354.14.354.141 0 .141-.141.141-.282.495.141 1.057.282 1.547.282 1.052 0 1.688-.563 2.667-.563.073 0 .213.14.213.209.349-.209 2.037-.844 2.104-1.125 0 0-.14-.209-.208-.209h-.208c-.073 0-.354.209-.422.209.281-.417.562-.558 1.052-.558v.14h.422l-.422.631c.63-.354 1.052-.844 1.474-1.406 0-.068.213-.35.213-.422.068 0 .558.14.631.14.422 0 .843-.208 1.052-.562-.209.214-.349.281-.63.281-.073 0-.214-.067-.214-.067.073-.141.635-.636.844-.776l.354.354c.068-.282.281-.563.63-.563l-.208-.208c.838-.281 1.193-1.266 2.104-1.339-.068-.067-.208-.281-.208-.349 0-.073.14-.208.208-.208l-.208-.281c.14-.214.489-.495.77-.636v.636l.49-.636c.073-.067.422-.562.495-.562.771-.912.703.422 1.401-1.334-.068 0-.349-.14-.422-.208v-.213c0-.068.214-.703.214-.844v-.208l-.214-.141c-.135 0-.698.14-.839.14 0 0 .141-.14.209-.14.562-.349.281-.63.703-1.052-.703.281-2.807.844-3.089.844h-.14c.422-.355 1.192-.495 1.192-1.058.422 0 1.053-.14 1.334-.422-.209-.28-.63-.28-1.052-.208l.208-.422h-.208c-.073 0-.563.14-.63.209-.073 0-.422.213-.422.213-.776.281-3.724 1.125-3.724 1.266h-1.474c-.073.067-.354.422-.422.422-.073 0-.563-.214-.636-.214h-.208c-.281 0-.422 0-.63.214h-2.39V44.4c-.844 0-.844-2.177-1.334-1.969.208-.281.208-.49.208-.843 0-.63-.49-1.125-.49-1.756 0-.703.49-1.614.49-2.104v-.14c-.067-.073-.416-.704-.416-.777 0 0-.073-.14-.073-.208 0-.073.073-.213.073-.281 0-.073.208-.703.208-.771l-.208-.213s.135-.49.208-.63c0-.074.208-.423.208-.495 0-.422-.49-.63-.49-1.053 0-.49.282-1.896.704-2.036l-.422-.49c.14 0 .63-.422.63-.562 0-.14-.422-.917-.422-1.058 0 0-.067-.208-.067-.28 0-.49.49-2.313.63-2.386l-.35-.422.21-.208c0-.141.14-.422.14-.495 0-.068-.281-.35-.35-.422v-.068c0-.281.21-.281.21-.562 0-.422-.21-.771-.21-1.125 0-.35.35-.912.35-1.26 0-.141-.14-.355-.35-.282.069-.281.423-.281.563-.281 0-.422-.213-.636-.213-1.125 0-1.052.213-1.969.213-3.089 0-3.234-.635-7.166-1.192-7.448l-.282.422-.562-.63.14-.281c-.354-.14-.213-1.052-.916-1.052 0 .276-.209 1.614-.563 1.755-.208-.354-.349-.844-.416-1.266h-.141c-.214 2.245-1.406 1.125-2.11 2.318-1.473 2.037-3.442 8.708-3.723 10.886-.14.562-.068 1.265-.209 1.828-.911 3.015-1.687 6.25-1.547 9.479-.28.422-.562 1.406-.562 1.896 0 .072.214.562.214.635-1.053 6.25-.495 6.88-.495 7.089 0 0 .073.14.073.213 0 .844-.35 1.406-.35 2.245.35 0 .558.14.558.422v.281c-.068 0-.281.495-.281.563 0 0 .213.213.281.213.635 1.052.354 2.734 1.198 3.578.068.073.422-.14.422-.14v1.057l.698-.281h.14c.073.067.214.422.214.49 0 .072-.14.208-.214.208h.495c0 .14-.073.635-.073.776 0 .067.214.208.214.208.067 0 .422-.208.49-.208.353 0 .562.349.77.63h.14c.074-.068.214-.209.214-.282.49.563 1.193 1.126 1.964 1.615-.068-.068 0-.14 0-.14h-.068c-.208 0-.208-.417 0-.417Z" class="Vector"/>
        </g>
      </g>
      <g class="Group">
        <g class="Group">
          <path fill="#1E40AF" fill-opacity=".4" d="M116.869 45.802c0 .073.073.14.073.214.979 2.458.557 1.26 2.807 2.666.068.073.422.214.422.214 2.036.698 4.354 1.052 6.458 1.052h.844l.281-.214-.281-.14c.776-.282 1.474-.068 2.177-.417.422-.281 1.057-.917 1.547-.917h.14l-.281.214h.141c.844 0 4.844-3.865 5.265-4.708.141-.209-.208-1.125.355-1.125h.14l-.213.421c.635-.421 1.192-1.822 1.406-2.526-.073 0-.281.141-.354.209 0 .073-.349.422-.417.422-.422.14-.495-.209-.495-.422 0-.35.214-.563.495-.839h-.213c-.49 0-.771.209-1.053.63l-.213-.422-.63.422c.14-.422.422-.703.63-1.052a3.381 3.381 0 0 1-1.052.422l-.068-.073c0-.208.422-.562.49-.77v-.214c-.068-.068-.349-.422-.422-.422l-.141-.068c-.844 0-2.104 1.407-2.739 1.964-1.125.844-3.651 2.11-4.985 2.11-2.39 0-1.828-.704-2.177-2.527 0-.073-.354-.776-.354-.844-.281-1.125-.141-2.598-.208-3.723-.073-.771-.49-1.266-.49-2.105 0-4.708 1.12-13.765 3.51-18.052 0-.073.068-.073.141-.14.49-.771 1.823-3.089 2.245-3.584h.213l.422-.422c0 .073.068.214.141.214.141 0 .208-.354.068-.422a6.95 6.95 0 0 1 1.687-1.266v.073h.563l.911.771.208-.422c.563.281.563 1.406.563 2.11 0 .63-.349.911-.349 1.474 0 .349.141.349.141.562 0 .35-.214.35-.214.63h.214c0 .563-.214.563-.214 1.266h.214l-.141.208c.208.073.141.354.141.495 0 .422-.563 2.807-.776 2.88.072 0 .213.136.213.209 0 .562-.213 2.244-.703 2.526.073 0 .281.14.281.14 0 1.406-1.052 4.636-1.474 5.901-.354.912-1.547 2.74-1.547 3.792 0 .073.073.354.073.354.068.14.631.281.771.281l-.213.422h.14c2.459 0 4.99-4.427 5.761-6.323.213-.49 1.265-3.161 1.406-3.791l.208-.214-.208-.208c1.125-1.406 1.193-4.568 1.193-6.183h-.209c0 .073-.073.636-.073.777 0 .067-.14.208-.208.208-.073-.14-.214-.703-.214-.844v-.14c0-.35 0-.422.214-.63 0 .067.141.14.208.14l.073.068c.068 0 .141-.068.141-.068.141-.495.489-1.755.489-2.458h-.348c0-.354-.073-.563-.073-.844h.213c0-.281-.422-.703-.495-1.052-.208-.844-.349-3.302-1.474-3.302v-.49c0-.073-.77-.844-1.125-1.057-.77-.63-3.302-1.682-4.354-1.682-5.406 0-8.495 5.338-10.885 9.411l-.771 1.052-1.474 3.162c0 .14-2.036 6.317-2.318 7.375-.916 2.875-.984 5.968-1.265 8.99-.073.978-.631 1.822-.631 2.806v.282s.209.349.209.422c0 .067-.209.349-.209.421v3.37c.141.068.417.49.417.63 0 .073-.208.422-.208.422l.422-.208v.208c-.073.073-.214.422-.214.422.495.073.917.14.917.636 0 .349-.495.208-.495.49 0 .421.917.348 1.057.28-.213.141-.213.282-.213.49 0 .073 0 .281.213.354l.209-.354Zm6.672-20.083c.213 0 .213.421 0 .421-.209 0-.209-.421 0-.421Zm0-1.266c.213 0 .213.349 0 .349-.209 0-.209-.349 0-.349Zm.911-3.37c.141 0 .141.422 0 .422-.208 0-.208-.422 0-.422Zm-1.542 8.214c.141 0 .141.14 0 .213-.14 0-.14-.28 0-.213Zm0 1.828c.141 0 .141.14 0 .208-.14 0-.14-.281 0-.208Z" class="Vector"/>
        </g>
      </g>
      <g class="Group">
        <g class="Group">
          <path fill="#1E40AF" fill-opacity=".4" d="M171.156 35.13c.703-.213 1.333-8.64 1.333-9.552 0-.281-.068-.984-.068-1.057l-.213-.417v-1.198c0-6.036-3.021-17.276-10.813-17.276-.843 0-1.546.14-1.546.984 0 .068.072.209.072.35-4.776.635-7.869 2.671-10.609 6.53h-.208l-.422.845-.208-.209c-3.021 4.495-4.495 11.026-4.495 16.432 1.052 9.344 2.385 11.938 3.229 13.063.208.281.984.214 1.052.635.073.63.214 1.615.63 2.037 0-.14.073-.354.214-.354.067 0 .14.14.14.213 0 .14-.073.209-.14.209h-.073c.14.072.281.14.495.14v.703c0 .985 2.244 1.474 2.244 1.896v.073l.422-.495c.354.14.282 1.193.844 1.193.073 0 .141 0 .281-.068l-.208.209c.135.14.276.213.417.213.213 0 .354-.073.635-.073v.214c.349 0 1.052 0 1.052.281l-.208.208h.838V51c.141 0 .703.074.844.074l3.583.416c5.058-.697 8.917-6.53 10.886-16.359Zm-21.208-10.255v-3.162c.421-.421.421-2.104.63-2.74.63-2.317 2.177-4.702 3.583-6.739l-1.266 1.26c.349-2.104 3.303-3.718 4.849-4.702V8.65c0-.214.349-.281.558-.281h.354l-.214.208h.422c.703 0 1.406.214 2.11.422l-.214.213c4.214 1.053 4.427 9.834 4.427 13.063v2.667c-.562 1.614-.354 3.161-.844 4.849l-.63 2.104c-.073.073-.213.422-.213.422 0 .073.14.213.213.213l-.703.703c.281 0 .281.276.281.49 0 .703-.916 1.193-.916 1.755l.213.281h-.213c-.349 0-.417.141-.417.422 0 .14 0 .35.208.422-.843.703-.422 1.964-1.614 2.386 0 .072.067.14.067.14 0 .214-.421.214-.562.214 0 .067.073.422.073.49-.073.072-.209.28-.49.489v.14c0 .141-.073.214-.14.214-.073 0-.141-.073-.141-.14-.495.421-1.057.703-1.125.703l-1.125 1.052s-.068.072-.141.072c-.911 0-1.823-.916-2.458-1.546-.068-.073-.068-.073-.141-.141l-.208-.213c-3.724-3.792-4.213-10.672-4.213-15.59Zm10.39 25.354c-.068.068-.281.14-.557.14-.214 0-.495-.072-.495-.14 0-.073.281-.073.495-.073.276 0 .557 0 .557.073Zm2.672-2.177c-.141.208-.354.349-.635.422.14-.214.421-.281.635-.422Z" class="Vector"/>
        </g>
      </g>
      <g class="Group">
        <g class="Group">
          <path fill="#1E40AF" fill-opacity=".4" d="M207.043 30.562c.141 0 .208.141.208.282l.282-.704c0 .141.072.214.213.214.208 0 .208-.495 0-.495-.073 0-.073.073-.141.073.141-.281.282-.495.349-.422.214-.28 1.615-3.932 1.896-3.583.214-.77.844-1.963 1.407-2.948-.214 0-.214-.422 0-.422.067 0 .14.14.14.209l.49-.771c.776-1.266 1.474-2.459 2.317-3.584.282-.349 1.615-.984 1.688-1.474l.068.214a.723.723 0 0 1-.068.208l-.63 1.125c.349-.354.979-.213 1.333-.635v.213c0 .209-.844.844-1.125.844v1.542l-.422.422h.63l-.63 1.125c.281 0 .422 1.547.422 1.895 0 .49-.208.985-.208 1.547 0 .49-.073 1.052.416 1.401-.14 0-.63.214-.63.355-.281.63.63.77.63 1.333s-.14.844-.416 1.333c.208.14.208.281.208.495 0 .208 0 .349-.208.63h.63c0 .49-.214.844-.214 1.334 0 .354.214.562.214.916v.068c0 .068-.141.208-.214.208l.636.636c-.073 0-.422.281-.422.422 0 .067.422.703.422.77 0 0 .068.141.068.214 0 0-.068.135-.068.208 0 0-.214.35-.214.422 0 .209.495.49.495.844.068-.073.281-.214.349-.214.563 0 .776.495.776.917v.136c0 .072-.141.776-.141.843 0 .073.141.214.141.214-.213.281-.635.703-1.057.703 0 .349.776.698 1.057.557-.213.073-.141.495-.141.636v.49s.141.28.141.353l-.141.209c0 .073-.213.354-.213.422.073-.068.354-.209.354-.209h.208l.282.558v.213l-.282.281v.068c.704 0 .704.844.844 1.339.49-.355.141-.563.771-.563 0 .208-.141.839-.141 1.052.141.35 1.125.703.912 1.406l.354-.213c0 .281.141.562.422.911-.214 0-.214.355 0 .355.068 0 .14-.073.14-.141.563.63 1.402 1.266 1.683 1.474v-.703c.495.14.354.776.844.916v-.916c.14.562.703.703 1.192.703.141 0 .281 0 .354-.209l.209.209.984-1.125h.214c.14 0 1.052-.839 1.333-1.26.703-1.058.349-3.021.771-4.006.073 0 .213-.562.281-.77v-.141c0-.282-.208-.495-.208-.917h.208s.141-1.052.208-1.474v-.14c0-.422-.489-.563-.489-.912 0-.349.281-.563.281-.911 0-.422-.281-.703-.281-1.198 0-.698.281-1.401.281-2.177 0-.771-.49-1.683-.49-2.386 0-.073.209-.562.209-.63 0-.917-.49-.495-.49-1.057h.068c.073 0 .213-.141.213-.209 0-.14.068-.843.068-.984 0-.281-.068-.844-.068-.912 0-.072-.354-.703-.354-.776-.349-2.036-.489-4-.63-5.968-.073-.703-.213-.35-.495-.35 0-2.739-.979-4.916-1.614-7.796-.068 0-.141-.209-.209-.209-.703-2.739-2.25-4.989-3.791-7.515 0-.073-.141-.214-.214-.281h-.208c0 .067-.214.208-.214.28-.067-.14-.349-.421-.349-.494h-.14c-1.334 0-1.688 2.318-2.667 2.318v-.209c-.354.282-.562.771-.562 1.266v.068c0 .073.14.349.208.422h-.63s-1.334.703-1.896 1.052c-1.547.916-3.235 2.177-4.427 3.302-1.266 1.333-2.104 2.88-3.511 4.005l-.213.208c-.417 1.266-2.177 3.162-2.948 4.146.141.282-.49.703-.49.703l.209.209c-.771.562-1.125 1.895-1.547 2.666-.276.422-.698 1.266-.698 1.266l.208.213c-.63.49-1.755 3.157-2.739 5.547l-.068-.073c.141-.067.068-.421-.073-.421-.208 0-.208.354-.068.421-.14.073-.14.355.068.355-.703 1.823-1.333 3.583-1.401 3.583-.776 0-5.339-8.781-6.396-10.61-.489-.979-1.26-1.682-1.682-2.598 0-.141-.354-.698-.422-.771-1.406-2.318-2.807-4.844-4.354-7.162.14-.213-1.755-2.74-2.531-2.74-.98 0-.912 2.037-1.053 2.527-.208.776-1.052 1.265-1.265 2.11-.698 3.02-.912 5.895-1.474 9.056-.141 1.407-.422 2.532-.563 4.146 0 .35.214 1.052-.208 1.474.208 3.792-.422 7.657-.422 11.448v.209c0 .14.208 1.125.208 1.265 0 .073-.208.422-.208.422v.214c0 2.177-.422 7.583 2.458 8.005h.704v-.985s.208-.208.349-.14c0 0 .14.49.213.703v.208l1.052-.911-.208-.208v-.141c.068-.073.417-.563.417-.636l.421-1.052-.421.209v-.209c0-.49.703-.703.843-1.265.282-.985.917-2.526.917-3.578h-.281c.349-1.407.771-2.178.838-3.724h-.416c0-.073.067-.073.067-.141l.068-.073c.354-.49.917-1.333.917-1.896 0-.067-.214-.562-.214-.63 0-.073.422-.703.422-.844.281-1.474.354-3.724.354-5.265.281 0 .698-.073.839-.422-.068.703.635 2.317 1.057 2.807l.63.422c.354.703-.281.911.49.911 0 0-.068.214-.068.282.068 0 .422.354.422.422.141.28.771 1.406.844 1.687l.422.208c.421.844 2.177 4.146 3.088 4.146 0 1.193 3.37 4.703 4.287 4.844-.073-.417.208-.417.416-.417.422 0 .422.276.703.276h.141c0-.067.354-.208.422-.208.073 0 .354.14.354.208.068 0 .557.141.63.141-.073-.417.068-.98.49-1.26.073.28.213.28.422.28a.682.682 0 0 0 .213-.072c1.964-.912 1.261-1.266 1.823-2.74.422-1.052.776-.984.563-2.458l.281.281c.984-3.443 2.25-6.599 3.302-9.9 0-.074.068-.214.141-.49 0 .067-.073.067-.141.067-.141 0-.141-.422 0-.422Z" class="Vector"/>
        </g>
      </g>
      <g class="letter">
        <g class="Group">
          <path fill="#1E40AF" fill-opacity=".4" d="M259.711 43.766c.14-.282-.282-2.318-.209-2.6.141-.348.068-1.541.422-1.682h-.495c0-.495.422-.495-.349-.843l-.562.63v-.209c.073-.14.281-.776.349-.843-.349.349-.558 1.192-1.261 1.265v-.213c.141-.209.563-1.125.703-1.266-.072 0-.213-.14-.213-.208h-.141c-.984 0-2.036.703-2.807 1.265l-.562.63h.208l-.422.422c0-.067-.068-.14-.068-.14-.489.562-1.052 1.193-1.052 1.193l.209-.422c-.49.073-.422.28-.563.635-.349.49-.422.068-1.12.422-.14.14-.703.63-.776.839v-.209c-.489.14-1.474.912-1.755 1.334v-.282c-.771.636-2.037 1.407-3.089 1.407h-.213a4.625 4.625 0 0 0-1.474-2.037h.495c0-.213-.141-1.266-.282-1.266h-.213v-1.682h-.281c0-1.057-.209-1.479-.209-2.318h-.14v-.213c0-.068.208-.35.208-.35l-.208-.213c0-.067.208-.421.208-.49 0 0 .073-.28.073-.353h-.495v-4.214l.214-.422 2.739-1.12c1.401-.494 8.776-4.354 8.776-6.109 0-.703-.422-.917-.984-.917v-.208c-.208 0-.979-.073-1.12-.073l-.213-.208c-.563 0-3.021.844-3.37 1.125-.073 0-.349.349-.422.416-.068 0-.49-.208-.563-.208-.14 0-.911.281-1.052.422v-.213c-.843.843-2.807.213-3.369 1.479.067-.282-.141-.563-.214-.704v-3.51c0-.073-.208-.776-.208-.844v-.14c0-.073.14-.214.208-.214V17.5l.214-.208-.214-.214v-1.474c0-.073-.208-.562-.208-.63 0-.703.489-1.125 1.125-1.48-.073-.067 0-.348.135-.348.073 0 .141.067.141.208l.281-.208.073-.073c.068 0 .141.073.141.073l.208.208c.073 0 .422-.14.422-.208l-.209-.214s.985.14 1.052-.208l.209.208c.213-.698 3.234-1.682 5.13-2.385-.073.14 0 .281.141.281.14 0 .208-.213.067-.349.776-.281 1.266-.495 1.339-.703 2.594-1.266 5.193-2.25 7.792-3.516.562-.276.776-1.26.776-1.682h-.776l.635-.422-.214-.213h-2.807c.141-.068.985-.141 1.125-.49-.213-.281-.562-.349-.984-.349-.776 0-1.688 0-2.25.563v-.214h-.979c-.073 0-4.006.911-5.62 1.333-1.615.282-5.62 1.615-6.953 2.672l-.636.63c-.208.141-1.963.563-2.244.985-.073-.214-.355-.985-.844-.985-.068 0-.422.209-.49.209 0 0-.14-.068-.213-.068v-.208c-1.052 0-2.667 2.458-2.881 3.229-.14.422-.562 2.667-.698 3.088-.14.985-.562 2.25-.562 3.162 0 .068.141.63.141.63 0 .14-.141.281-.214.281v1.615l-.349.281c.281 2.672-.844 5.058-.703 7.938-.281.213-.214.63-.214.984 0 .703.282 1.333.282 2.104 0 .214.073.563-.282.636v1.474l-.208.208c.208.635.208.844.208 1.48 0 .63-.208 1.192-.208 1.822v.073c.068 0 .208.208.208.208v.14c0 .423-.14 1.548-.208 1.688 0 .068-.208.563-.208.63 0 1.829.63 9.13 1.896 10.678.208.208 1.401 1.4 1.755 1.682.068 0 .349.214.349.214.635.562.14.421 1.125.843.349.14.984.422.984.422v.14c.281-.14.422-.14.703-.14h.209c.14 0 .703.276.703.35l-.141.207c.141.282.912.563.912.917h.354v.14c1.052 0 2.104.423 3.229.423h.562c.068 0 10.672-4.636 13.553-11.802Z" class="Vector"/>
        </g>
      </g>
      <g class="letter t in to">
        <g class="Group">
          <path fill="#1E40AF" fill-opacity=".4" d="M293.769 44.469c-.141 0-.141.14-.141.208 0 .14 0 .214.141.214.073 0 .141-.073.141-.214.281 1.266.421 1.406 1.192 1.406l-.067-.067c0-.141.067-.282.208-.282.073 0 .141.14.141.209 0 .073 0 .14-.068.213h.14c.704.35.771 1.542 1.756 1.542v-1.755l.208-.209.422.844h.213c0-.917.631-1.62 1.266-1.901l.417-.417c.916-1.76 1.479-7.026 1.479-9.13 0-.073-.214-.422-.214-.422v-.281c0-.563.073-.844.214-1.406v-5.76c.208-.282.281-.49.281-.84 0-.14 0-.353-.281-.421.281-.636.208-1.266.208-2.39v-2.95c0-.073.214-.776.214-.843 0-.073-.141-.35-.214-.422V12.02c0-.068 8.849-.912 11.521-2.386v-.213c-.073-.068-.354-.14-.495-.209.354-.14 1.755-1.406 1.896-1.473-.349 0-.422-.141-.422-.355 0-.28.073-.984.495-.984v-.98c-.703 0-1.193.35-1.266.912 0-.49.209-.844.209-1.333h-2.386l-.208-.214s-4.495-.349-6.396-.421c-.276 0-1.823.072-2.875.072-1.687 0-2.318-.494-3.443-.494-2.458 0-13.625.776-13.625 4.776 0 1.057 1.547 2.317 1.547 2.88.209-.209.276-.281.349-.281.141 0 .209.072.49.072 0 .068-.068.068-.068.141l.068.068s.14.213.213.213c.141-.072.422-.28.631-.28l.213.067-.422.213h.63v.141c-.281 0 5.688.349 5.688 1.052 0 1.052-.349 2.037-.422 3.021-.422 4.984-1.052 10.042-1.052 14.958 0 .563.281 1.125.281 1.125 0 .35-.281.422-.281.985 0 .49.281.838.281 1.26v.354l-.208.209c0 .072.141.354.208.422v.421h.349c-.416.49-.416.912-.416 1.474 0 .703.208.63.208 1.193 0 .214 0 .495-.141.563 0 0 .282.354.349.421v.214l-.208.208c0 .912.63 1.474.63 2.39v.277l.422-.208-.422.63c.141.281.214.917.422 1.547Z" class="Vector"/>
        </g>
      </g>
      <g class="letter o in to">
        <g class="Group">
          <path fill="#1E40AF" fill-opacity=".4" d="M344.405 35.13c.703-.213 1.333-8.64 1.333-9.552 0-.281-.067-.984-.067-1.057l-.214-.417v-1.198c0-6.036-3.021-17.276-10.812-17.276-.844 0-1.547.14-1.547.984 0 .068.073.209.073.35-4.776.635-7.87 2.671-10.61 6.53h-.208l-.422.845-.208-.209c-3.021 4.495-4.495 11.026-4.495 16.432 1.052 9.344 2.385 11.938 3.229 13.063.208.281.984.214 1.052.635.073.63.214 1.615.63 2.037 0-.14.073-.354.214-.354.068 0 .141.14.141.213 0 .14-.073.209-.141.209h-.073a1 1 0 0 0 .495.14v.703c0 .985 2.245 1.474 2.245 1.896v.073l.421-.495c.355.14.282 1.193.844 1.193.073 0 .141 0 .281-.068l-.208.209c.136.14.276.213.417.213.213 0 .354-.073.635-.073v.214c.349 0 1.052 0 1.052.281l-.208.208h.839V51c.14 0 .703.074.843.074l3.584.416c5.057-.697 8.916-6.53 10.885-16.359Zm-21.208-10.255v-3.162c.422-.421.422-2.104.63-2.74.63-2.317 2.177-4.702 3.583-6.739l-1.265 1.26c.349-2.104 3.302-3.718 4.849-4.702V8.65c0-.214.349-.281.557-.281h.354l-.214.208h.422c.703 0 1.407.214 2.11.422l-.214.213c4.214 1.053 4.427 9.834 4.427 13.063v2.667c-.562 1.614-.354 3.161-.843 4.849l-.631 2.104c-.073.073-.213.422-.213.422 0 .073.14.213.213.213l-.703.703c.281 0 .281.276.281.49 0 .703-.916 1.193-.916 1.755l.213.281h-.213c-.349 0-.417.141-.417.422 0 .14 0 .35.208.422-.843.703-.421 1.964-1.614 2.386 0 .072.068.14.068.14 0 .214-.422.214-.563.214 0 .067.073.422.073.49-.073.072-.208.28-.49.489v.14c0 .141-.073.214-.14.214-.073 0-.141-.073-.141-.14-.495.421-1.057.703-1.125.703l-1.125 1.052s-.068.072-.14.072c-.912 0-1.823-.916-2.459-1.546-.068-.073-.068-.073-.14-.141l-.209-.213c-3.724-3.792-4.213-10.672-4.213-15.59Zm10.39 25.354c-.067.068-.281.14-.557.14-.214 0-.495-.072-.495-.14 0-.073.281-.073.495-.073.276 0 .557 0 .557.073Zm2.672-2.177c-.14.208-.354.349-.635.422.14-.214.422-.281.635-.422Z" class="Vector"/>
        </g>
      </g>
      <g class="first dot">
        <g class="Group">
          <path fill="#1E40AF" fill-opacity=".4" d="M355.428 54.089c.14 0 .14.14.14.28.844-1.26.844-3.437.844-5.124V48.4c0-.77-.703-2.104-1.964-2.104-3.161 0-3.093 2.177-4.218 3.088-.276 1.266-.276 2.037-.276 3.23 0 .213.067 1.192.067 1.474.073-.068.282-.209.349-.209 0 0 .214.14.214.209.14 0 .984 1.197.984 1.265v.073c.141-.14.281-.14.422-.14h.49v.067c.422 0 .489.281.911.281h.281c.776-.421 1.474-.703 1.828-1.192h-.072c-.141 0-.141-.073-.141-.141 0-.14 0-.213.141-.213Z" class="Vector"/>
        </g>
      </g>
      <g class="second dot">
        <g class="Group">
          <path fill="#1E40AF" fill-opacity=".4" d="M366.102 54.089c.141 0 .141.14.141.28.843-1.26.843-3.437.843-5.124V48.4c0-.77-.703-2.104-1.963-2.104-3.162 0-3.094 2.177-4.219 3.088-.276 1.266-.276 2.037-.276 3.23 0 .213.068 1.192.068 1.474.073-.068.281-.209.349-.209 0 0 .213.14.213.209.141 0 .985 1.197.985 1.265v.073c.14-.14.281-.14.422-.14h.489v.067c.422 0 .49.281.912.281h.281c.776-.421 1.474-.703 1.828-1.192h-.073c-.141 0-.141-.073-.141-.141 0-.14 0-.213.141-.213Z" class="Vector"/>
        </g>
      </g>
      <g class="third dot">
        <g class="Group">
          <path fill="#1E40AF" fill-opacity=".4" d="M376.776 54.089c.141 0 .141.14.141.28.844-1.26.844-3.437.844-5.124V48.4c0-.77-.703-2.104-1.964-2.104-3.161 0-3.093 2.177-4.218 3.088-.276 1.266-.276 2.037-.276 3.23 0 .213.067 1.192.067 1.474.073-.068.281-.209.349-.209 0 0 .214.14.214.209.14 0 .984 1.197.984 1.265v.073c.141-.14.281-.14.422-.14h.49v.067c.421 0 .489.281.911.281h.281c.776-.421 1.474-.703 1.828-1.192h-.073c-.14 0-.14-.073-.14-.141 0-.14 0-.213.14-.213Z" class="Vector"/>
        </g>
      </g>
      <g class="letter w in welcome">
        <g class="Group">
          <path fill="#BFDBFE" d="M3.37 52.885c-.073.209.281 1.12.703.912.698-.422.14-1.193.698-1.406.635.213-.276 1.406 2.318 1.406h.635l.208-.281c-.067 0-.208-.141-.208-.214v-.208c0-.073.14-.209.208-.209 0 0 .073-.072.14-.072l.074.072c.068.068.63.558.703.63.068.068.281.068.281.068 0-.208-.073-.349-.281-.49l.49-1.406c.421.495.28-.348 1.124-.63 0 0 .141-.14.209-.213.422-.63 1.125-2.875 1.125-3.578v-.073c0-.068-.14-.209-.214-.209.495-.494 1.125-3.51 1.125-4.145l-.208-.209c0-.073.208-.635.208-.703.214-.844 1.058-5.687 1.407-6.11l.208-.213c.495-2.458 2.036-7.932 3.656-9.76l-.495.208c.563-.49.844-1.26 1.407-1.26 0 2.104.703 3.932 1.125 6.036 1.052.422.698 2.88 1.333 3.162h.208c.355.562 1.474 2.953 1.615 3.442.073.209.354.985.422 1.125.281.563.843.98 1.198 1.542 1.4 2.88 3.578 5.62 5.687 8.01.068.141.985 1.401 1.125 1.542.839.917 2.667 1.406 3.86 1.406 1.265 0 1.546-1.125 2.88-1.125 0-1.125 1.614-.703 1.896-1.406l-.282-.208c.703-1.052 1.547-.49 1.547-1.828h.281l.704-1.334c-.073.073-.355.214-.422.214-.14 0-.422-.14-.495-.214.281-.63.917-.14 1.125-1.192 0 0-.208-.35-.208-.422l.208-.209c.495-.916.354-1.265.703-2.036h-.208c-.073 0-.917.417-1.058.417h-.067l.422-.912.208.214c.703-.422.77-1.62 1.125-2.25h-.214c-.416 0-.698.14-1.12.494.068-.776.282-.28.704-.703.276-.281.698-1.896.698-2.317h-.282v-.214l-.416.495c0-.073-.073-.14-.073-.14 0-.777.984-1.266 1.193-1.897h-.209c-.213.068-.984.35-1.125.417.354-.698.771-.63 1.125-1.12.563-.843.14-1.828.912-2.74-.563.141-1.125.422-1.615.704l.422-.917.281.214.422-.422v-2.11c-.14 0-.354.073-.422.282 0-.068-.073-.141-.073-.141l.073-.14c.068-.068.844-.771.912-.912 0 0 .073-.068.073-.14-.282 0-.422-.068-.563-.282.14-.14.844-.77.911-.911l.073-.214h-.984c.068-.281.422-.281.63-.281 0-.558.563-1.964.985-2.245-.073 0-.495-.63-.495-.703 0-.281.14-.77.562-.77 0-.563-.349-.563-.349-.985 0-.068.068-.209.068-.282l.214.282c.63-.912.562-3.51.703-4.355-.214.068-1.198-.208-1.198-.421 0-.844.354-.35.703-.35v.068h.354c0-.14.068-.77.14-.911 0-.073.141-.14.21-.214-.282-.14-.845-.77-.845-.911h.703c0-.422-.349-.422-.349-.77v-.142c.068 0 .209-.354.282-.421.067-.214.208-.704.208-.704 0-.067-.14-.348-.208-.421-.073-.068-.14-.141-.214-.141 0 .213 0 .703-.281.77-.068 0-.208-.348-.208-.416 0-.073.422-.635.422-.703l.067-.073c0-.068-.068-.14-.068-.14 0-.068-.14-.209-.213-.209h-.208c-.63-.984-.563-2.531-.495-3.443-.136.073-.771-.067-.912-.208-.067-.073.073-1.057 0-1.125-.067-.844-1.474-.422-1.755-1.406l-.911.495c0-.422-.214-.495-.495-.495-.349 0-.839.562-1.12.703v-.49c-.422 0-2.39 2.177-2.531 2.105-3.51 3.02-3.089 9.765-3.37 14.046 0 .141-.14.771-.213.912-.068.073-.276.422-.276.495 0 .14.067 1.614 0 1.823 0 .073-.141.354-.214.422v2.53c-.14 0-.422.35-.422.423-.068.14.214.838.214.911 0 1.125-.563 2.104-.563 3.162h.208c0 1.26-.49.208-.49 1.192h.35c-.209.422 0 1.407-.703 1.407 0 .14.14.348.281.421l-.49.417c-.77-.63-1.265-1.896-1.755-2.734a138.622 138.622 0 0 0-1.406-2.037h-.208c-.141-.984-.776-1.479-.917-2.041-.068-.276-.208-.912-.208-.912h-.282c0-.49-.28-.844-.208-1.333l-.422.208v-.208c0-.14.14-.63.209-.703 0 .14-.35.28-.422.213-.563-.281-.703-1.76-.703-2.036l-.209.416s-.073-.14-.073-.208c0-.281.073-.422.282-.703l-.49.281c0-.14-.14-.63-.214-.703-.208-.422-1.12-2.318-1.333-2.74.073-.208-.14-.562-.281-.703-.068-.14-.771-1.12-.912-1.333l.073-.068c.276-.354.417-.635.417-1.052 0-.916-.771-.562-1.26-.562 0-.354.421-.917-.355-1.058-.77-.14-3.51 1.756-4.073 2.318-.77.703-3.65 3.516-4.073 4.073-.421.495-2.177 2.88-2.526 3.375h-.28c0-1.125.207-1.057-.142-2.458-.213-.703-.703-1.058-.703-1.828h.282c0-.844-.422-1.756-.495-2.526a48.109 48.109 0 0 0-1.823-7.516C7.51 9.76 7.51 9.13 7.229 8.568c-.14-.495-.417-.14-.838-.14 0-.777.208-1.407.208-2.178v-.917c-.63-.416-.563-1.12-1.474-1.12h-.14c-.074 0-.423.282-.423.209-.77-.14-1.125-.912-2.109-.912C-.28 3.51.771 7.161 0 7.375c.068.068.208.208.208.276v.213c0 .068-.14.209-.208.209v2.953c0 4.14.276 8.146.208 12.292l.209.416v5.058l.354.635v8.427c0 1.266.068 7.797.14 9.339 0 .213.209 2.25.209 2.458v1.615l.213.213v1.682c.63 0 .63-.14.63-.557v-.14l.282-.073c.208.073.984.422 1.125.494Zm9.833-17.77c.209 0 .209.49 0 .49-.281 0-.281-.49 0-.49Zm-3.864-9.76c.208 0 .208.489 0 .489-.282 0-.282-.49 0-.49Zm11.098-4.079c.141 0 .141.214 0 .214-.14 0-.14-.214 0-.214ZM37.5 13.974c.214 0 .214.49 0 .49-.208 0-.208-.49 0-.49ZM7.724 12.849c.208 0 .208.495 0 .495-.214 0-.214-.495 0-.495Zm30.198-1.823c.281 0 .281.49 0 .49-.208 0-.208-.49 0-.49Z" class="Vector"/>
        </g>
      </g>
      <g class="letter e (First) in welcome">
        <g class="Group">
          <path fill="#BFDBFE" d="M77.458 40.661c.14-.28-.281-2.317-.208-2.599.14-.348.068-1.541.422-1.682h-.495c0-.495.422-.495-.349-.844l-.563.63v-.208c.073-.14.282-.776.35-.843-.35.349-.558 1.192-1.261 1.265v-.213c.14-.209.563-1.125.703-1.266-.073 0-.213-.14-.213-.208h-.141c-.984 0-2.037.703-2.807 1.265l-.563.63h.209l-.422.422c0-.067-.068-.14-.068-.14-.49.562-1.052 1.193-1.052 1.193l.208-.422c-.49.073-.422.28-.562.635-.35.49-.422.068-1.12.422-.14.14-.703.63-.776.838v-.208c-.49.14-1.474.912-1.755 1.333v-.28c-.771.635-2.037 1.405-3.089 1.405h-.213a4.625 4.625 0 0 0-1.474-2.036h.494c0-.214-.14-1.266-.28-1.266h-.214v-1.682h-.282c0-1.057-.208-1.48-.208-2.318h-.14v-.213c0-.068.208-.35.208-.35l-.209-.213c0-.067.209-.422.209-.49 0 0 .073-.28.073-.353h-.495V28.65l.213-.422 2.74-1.12c1.401-.494 8.776-4.354 8.776-6.109 0-.703-.422-.917-.984-.917v-.208c-.209 0-.98-.073-1.12-.073l-.214-.208c-.562 0-3.02.843-3.37 1.125-.072 0-.348.349-.421.416-.068 0-.49-.208-.563-.208-.14 0-.911.281-1.052.422v-.214c-.844.844-2.807.214-3.37 1.48.068-.282-.14-.563-.213-.703V18.4c0-.073-.209-.776-.209-.844v-.14c0-.073.141-.214.209-.214v-2.807l.213-.209-.213-.213V12.5c0-.073-.209-.563-.209-.63 0-.703.49-1.125 1.125-1.48-.072-.067 0-.348.136-.348.073 0 .14.067.14.208l.282-.208.073-.073c.067 0 .14.073.14.073l.209.208c.073 0 .422-.14.422-.208l-.209-.214s.985.14 1.052-.208l.209.208c.213-.698 3.234-1.682 5.13-2.385-.073.14 0 .281.14.281.141 0 .209-.214.068-.349.776-.281 1.266-.495 1.339-.703 2.593-1.266 5.192-2.25 7.791-3.516.563-.276.776-1.26.776-1.682h-.776l.636-.422-.214-.213H77.25c.14-.068.984-.141 1.125-.49C78.16.068 77.812 0 77.39 0c-.776 0-1.688 0-2.25.563V.349h-.98c-.073 0-4.005.911-5.62 1.333-1.614.282-5.62 1.615-6.953 2.672l-.635.63c-.208.141-1.964.563-2.245.985-.073-.214-.354-.985-.843-.985-.068 0-.422.209-.49.209 0 0-.14-.068-.214-.068v-.208c-1.052 0-2.666 2.458-2.88 3.229-.14.422-.562 2.666-.698 3.088-.14.985-.562 2.25-.562 3.162 0 .067.14.63.14.63 0 .14-.14.281-.213.281v1.615l-.35.281c.282 2.672-.843 5.057-.702 7.938-.282.213-.214.63-.214.984 0 .703.281 1.333.281 2.104 0 .214.073.563-.28.636v1.474l-.21.208c.21.635.21.844.21 1.479 0 .63-.21 1.193-.21 1.823v.073c.069 0 .21.208.21.208v.14c0 .423-.142 1.548-.21 1.688 0 .068-.207.563-.207.63 0 1.829.63 9.13 1.895 10.678.209.208 1.401 1.4 1.755 1.682.068 0 .35.213.35.213.635.563.14.422 1.125.844.349.14.984.422.984.422v.14c.281-.14.422-.14.703-.14h.208c.141 0 .703.276.703.349l-.14.208c.14.282.911.563.911.917h.355v.14c1.051 0 2.104.423 3.229.423h.562c.068 0 10.672-4.636 13.552-11.803Z" class="Vector"/>
        </g>
      </g>
      <g class="Letter l in welcome">
        <g class="Group">
          <path fill="#BFDBFE" d="M90.38 50.568c.068 0 .14.135.14.208h.068c.214 0 .214.422 0 .422h-.067c.562.281 1.052.562 1.614.77-.067-.14 0-.28.14-.28.141 0 .21.28.074.354.067.067.208.067.276.067-.14.073-.14.355.14.355.141 0 .141-.141.141-.282.495.14 1.057.282 1.547.282 1.052 0 1.688-.563 2.667-.563.073 0 .213.14.213.208.35-.208 2.037-.843 2.104-1.125 0 0-.14-.208-.208-.208h-.208c-.073 0-.355.208-.422.208.281-.416.562-.557 1.052-.557v.14h.422l-.422.63c.63-.353 1.052-.843 1.474-1.405 0-.068.213-.35.213-.422.068 0 .558.14.631.14.422 0 .843-.208 1.052-.562-.209.213-.349.281-.63.281-.073 0-.214-.068-.214-.068.073-.14.635-.635.844-.776l.354.355c.068-.282.281-.563.63-.563l-.208-.208c.838-.282 1.192-1.266 2.104-1.339-.068-.068-.208-.281-.208-.349 0-.073.14-.208.208-.208l-.208-.281c.14-.214.489-.495.77-.636v.636l.49-.636c.073-.067.422-.562.495-.562.771-.912.703.422 1.401-1.334-.068 0-.349-.14-.422-.208v-.213c0-.068.214-.704.214-.844v-.209l-.214-.14c-.135 0-.698.14-.839.14 0 0 .141-.14.209-.14.562-.35.281-.63.703-1.052-.703.281-2.807.843-3.089.843h-.14c.422-.354 1.192-.494 1.192-1.057.422 0 1.053-.14 1.334-.422-.209-.28-.63-.28-1.052-.208l.208-.422h-.208c-.073 0-.563.14-.631.208-.072 0-.421.214-.421.214-.776.281-3.724 1.125-3.724 1.266h-1.474c-.073.067-.354.422-.422.422-.073 0-.563-.214-.636-.214h-.208c-.281 0-.422 0-.63.214h-2.39v-.141c-.844 0-.844-2.177-1.334-1.969.208-.281.208-.49.208-.844 0-.63-.49-1.125-.49-1.755 0-.703.49-1.614.49-2.104v-.14c-.067-.074-.416-.704-.416-.777 0 0-.073-.14-.073-.208 0-.073.073-.214.073-.281 0-.073.208-.703.208-.771l-.209-.214s.136-.49.209-.63c0-.073.208-.422.208-.495 0-.422-.49-.63-.49-1.052 0-.49.282-1.896.704-2.036l-.422-.49c.14 0 .63-.422.63-.562 0-.14-.422-.917-.422-1.058 0 0-.067-.208-.067-.28 0-.49.49-2.313.63-2.386l-.35-.422.21-.208c0-.141.14-.422.14-.495 0-.068-.281-.35-.35-.422v-.068c0-.281.21-.281.21-.562 0-.422-.21-.771-.21-1.125 0-.35.35-.912.35-1.26 0-.141-.14-.355-.35-.282.069-.281.423-.281.563-.281 0-.422-.213-.636-.213-1.125 0-1.052.213-1.969.213-3.089 0-3.234-.635-7.166-1.192-7.448l-.282.422-.562-.63.14-.281c-.354-.14-.213-1.052-.916-1.052 0 .276-.209 1.614-.563 1.755-.208-.354-.349-.844-.416-1.266h-.141c-.214 2.245-1.406 1.125-2.11 2.318-1.473 2.036-3.442 8.708-3.723 10.885-.141.563-.068 1.266-.209 1.828-.911 3.016-1.687 6.25-1.547 9.48-.28.421-.562 1.406-.562 1.895 0 .073.214.563.214.636-1.053 6.25-.495 6.88-.495 7.088 0 0 .073.141.073.214 0 .844-.35 1.406-.35 2.245.35 0 .558.14.558.422v.28c-.068 0-.281.496-.281.563 0 0 .213.214.28.214.636 1.052.355 2.734 1.199 3.578.067.073.422-.14.422-.14v1.057l.698-.282h.14c.073.068.214.422.214.49 0 .073-.14.208-.214.208h.495c0 .141-.073.636-.073.776 0 .068.214.209.214.209.067 0 .421-.209.49-.209.353 0 .562.35.77.63h.14c.074-.067.214-.208.214-.28.49.562 1.193 1.124 1.964 1.614-.068-.068 0-.14 0-.14h-.068c-.208 0-.208-.417 0-.417Z" class="Vector"/>
        </g>
      </g>
      <g class="Letter c in welcome">
        <g class="Group">
          <path fill="#BFDBFE" d="M113.765 42.698c0 .073.072.14.072.213.98 2.459.558 1.26 2.808 2.667.067.073.422.214.422.214 2.036.698 4.354 1.052 6.458 1.052h.844l.281-.214-.281-.14c.776-.282 1.474-.068 2.177-.417.422-.281 1.057-.917 1.547-.917h.14l-.281.214h.141c.843 0 4.843-3.865 5.265-4.709.141-.208-.208-1.125.354-1.125h.141l-.213.422c.635-.422 1.192-1.823 1.406-2.526-.073 0-.281.14-.354.209 0 .073-.349.422-.417.422-.422.14-.495-.209-.495-.422 0-.35.214-.563.495-.839h-.214c-.489 0-.77.208-1.052.63l-.213-.422-.63.422c.14-.422.421-.703.63-1.052a3.381 3.381 0 0 1-1.052.422l-.068-.073c0-.208.422-.562.49-.77v-.214c-.068-.068-.349-.422-.422-.422l-.141-.068c-.844 0-2.104 1.406-2.739 1.964-1.125.843-3.652 2.11-4.985 2.11-2.39 0-1.828-.704-2.177-2.527 0-.073-.354-.776-.354-.844-.281-1.125-.141-2.599-.208-3.724-.073-.77-.49-1.265-.49-2.104 0-4.708 1.12-13.765 3.51-18.052 0-.073.068-.073.141-.14.49-.771 1.823-3.09 2.245-3.584h.213l.422-.422c0 .073.068.214.141.214.14 0 .208-.354.068-.422a6.929 6.929 0 0 1 1.687-1.266v.073h.563l.911.771.208-.422c.563.281.563 1.406.563 2.11 0 .63-.349.911-.349 1.473 0 .35.141.35.141.563 0 .349-.214.349-.214.63h.214c0 .563-.214.563-.214 1.266h.214l-.141.208c.208.073.141.354.141.495 0 .422-.563 2.807-.777 2.88.073 0 .214.136.214.209 0 .562-.214 2.244-.703 2.526.073 0 .281.14.281.14 0 1.406-1.052 4.636-1.474 5.901-.354.912-1.547 2.74-1.547 3.792 0 .073.073.354.073.354.068.14.63.281.771.281l-.213.422h.14c2.458 0 4.99-4.427 5.761-6.323.213-.49 1.265-3.161 1.406-3.791l.208-.214-.208-.208c1.125-1.407 1.193-4.568 1.193-6.183h-.209c0 .073-.073.636-.073.777 0 .067-.14.208-.208.208-.073-.14-.214-.703-.214-.844v-.14c0-.35 0-.422.214-.63 0 .067.141.14.208.14l.073.068c.068 0 .141-.068.141-.068.14-.495.489-1.755.489-2.459h-.349c0-.354-.072-.562-.072-.843h.213c0-.281-.422-.703-.495-1.052-.208-.844-.349-3.302-1.474-3.302v-.49c0-.073-.771-.844-1.125-1.057-.771-.63-3.302-1.683-4.354-1.683-5.406 0-8.495 5.339-10.885 9.412l-.771 1.052-1.474 3.161c0 .141-2.037 6.318-2.318 7.375-.916 2.875-.984 5.97-1.265 8.99-.073.98-.631 1.823-.631 2.807v.282s.209.349.209.421c0 .068-.209.35-.209.422v3.37c.141.068.417.49.417.63 0 .073-.208.422-.208.422l.422-.208v.208c-.073.073-.214.422-.214.422.495.073.917.14.917.636 0 .348-.495.208-.495.49 0 .42.917.348 1.057.28-.213.14-.213.282-.213.49 0 .073 0 .281.213.354l.209-.354Zm6.671-20.083c.214 0 .214.421 0 .421-.208 0-.208-.421 0-.421Zm0-1.266c.214 0 .214.349 0 .349-.208 0-.208-.35 0-.35Zm.912-3.37c.141 0 .141.422 0 .422-.208 0-.208-.422 0-.422Zm-1.542 8.214c.141 0 .141.14 0 .213-.14 0-.14-.281 0-.213Zm0 1.828c.141 0 .141.14 0 .208-.14 0-.14-.281 0-.208Z" class="Vector"/>
        </g>
      </g>
      <g class="Lettter o in welcome">
        <g class="Group">
          <path fill="#BFDBFE" d="M168.052 32.026c.703-.214 1.333-8.64 1.333-9.552 0-.281-.068-.984-.068-1.057l-.213-.417v-1.198c0-6.036-3.021-17.276-10.813-17.276-.843 0-1.547.14-1.547.984 0 .068.073.209.073.35-4.776.635-7.869 2.671-10.609 6.53H146l-.422.844-.209-.208c-3.02 4.495-4.494 11.026-4.494 16.432 1.052 9.344 2.385 11.938 3.229 13.063.208.281.984.213 1.052.635.073.63.213 1.615.63 2.037 0-.14.073-.354.214-.354.067 0 .14.14.14.213 0 .14-.073.208-.14.208h-.073c.14.073.281.141.495.141v.703c0 .985 2.244 1.474 2.244 1.896v.073l.422-.495c.354.14.281 1.193.844 1.193.073 0 .141 0 .281-.068l-.208.208c.135.141.276.214.417.214.213 0 .354-.073.635-.073v.214c.349 0 1.052 0 1.052.28l-.208.21h.838v.14c.141 0 .703.073.844.073l3.583.416c5.058-.697 8.917-6.53 10.886-16.359Zm-21.209-10.255v-3.162c.422-.422.422-2.104.631-2.74.63-2.317 2.177-4.702 3.583-6.739l-1.266 1.26c.349-2.104 3.302-3.718 4.849-4.703v-.14c0-.214.349-.281.558-.281h.354l-.214.208h.422c.703 0 1.406.213 2.109.422l-.213.213c4.213 1.052 4.427 9.834 4.427 13.063v2.666c-.562 1.615-.354 3.162-.844 4.85l-.63 2.104c-.073.073-.213.421-.213.421 0 .073.14.214.213.214l-.703.703c.281 0 .281.276.281.49 0 .703-.916 1.192-.916 1.755l.213.281h-.213c-.349 0-.417.14-.417.422 0 .14 0 .35.208.422-.844.703-.422 1.964-1.614 2.385 0 .073.067.141.067.141 0 .214-.422.214-.562.214 0 .067.073.421.073.49-.073.072-.209.28-.49.489v.14c0 .141-.073.214-.14.214-.073 0-.141-.073-.141-.14-.495.421-1.057.702-1.125.702l-1.125 1.053s-.068.072-.141.072c-.911 0-1.823-.916-2.458-1.546-.068-.073-.068-.073-.141-.141l-.208-.214c-3.724-3.791-4.214-10.672-4.214-15.588Zm10.391 25.354c-.068.068-.281.14-.557.14-.214 0-.495-.072-.495-.14 0-.073.281-.073.495-.073.276 0 .557 0 .557.073Zm2.672-2.177c-.141.208-.354.349-.635.422.14-.214.421-.281.635-.422Z" class="Vector"/>
        </g>
      </g>
      <g class="Letter m in welcome">
        <g class="Group">
          <path fill="#BFDBFE" d="M203.939 27.458c.14 0 .208.14.208.282l.281-.704c0 .141.073.214.214.214.208 0 .208-.495 0-.495-.073 0-.073.073-.141.073.141-.281.282-.495.349-.422.214-.281 1.615-3.932 1.896-3.583.214-.77.844-1.964 1.406-2.948-.213 0-.213-.422 0-.422.068 0 .141.14.141.208l.49-.77c.776-1.266 1.474-2.459 2.317-3.584.282-.349 1.615-.984 1.688-1.474l.068.214a.723.723 0 0 1-.068.208l-.63 1.125c.349-.354.979-.213 1.333-.635v.213c0 .209-.844.844-1.125.844v1.542l-.422.422h.63l-.63 1.125c.281 0 .422 1.547.422 1.895 0 .49-.208.985-.208 1.547 0 .49-.073 1.052.416 1.401-.14 0-.63.214-.63.354-.281.63.63.771.63 1.334 0 .562-.14.844-.416 1.333.208.14.208.281.208.495 0 .208 0 .349-.208.63h.63c0 .49-.214.844-.214 1.334 0 .354.214.562.214.916v.068c0 .068-.141.208-.214.208l.636.636c-.073 0-.422.28-.422.421 0 .068.422.704.422.771 0 0 .067.141.067.214 0 0-.067.135-.067.208 0 0-.214.35-.214.422 0 .208.495.49.495.844.068-.073.281-.214.349-.214.562 0 .776.495.776.917v.135c0 .073-.141.776-.141.844 0 .073.141.214.141.214-.214.28-.635.703-1.057.703 0 .349.776.698 1.057.557-.214.073-.141.495-.141.636v.49s.141.28.141.353l-.141.209c0 .073-.213.354-.213.422.073-.068.354-.209.354-.209h.208l.282.557v.214l-.282.281v.068c.703 0 .703.844.844 1.339.49-.355.141-.563.771-.563 0 .208-.141.839-.141 1.052.141.349 1.125.703.912 1.406l.354-.213c0 .281.14.562.422.911-.214 0-.214.354 0 .354.067 0 .14-.072.14-.14.563.63 1.401 1.265 1.683 1.474v-.703c.494.14.354.776.843.916v-.916c.141.562.704.703 1.193.703.141 0 .281 0 .354-.209l.209.209.984-1.125h.214c.14 0 1.052-.839 1.333-1.26.703-1.058.349-3.022.771-4.006.073 0 .213-.562.281-.77v-.141c0-.282-.208-.495-.208-.917h.208s.141-1.052.208-1.474v-.14c0-.422-.489-.563-.489-.912 0-.349.281-.563.281-.911 0-.422-.281-.704-.281-1.198 0-.698.281-1.402.281-2.178 0-.77-.49-1.682-.49-2.385 0-.073.209-.562.209-.63 0-.917-.49-.495-.49-1.057h.068c.073 0 .213-.141.213-.209 0-.14.068-.843.068-.984 0-.281-.068-.844-.068-.912 0-.073-.354-.703-.354-.776-.349-2.036-.489-4-.63-5.968-.073-.703-.214-.35-.495-.35 0-2.739-.979-4.916-1.614-7.796-.068 0-.141-.209-.209-.209-.703-2.74-2.25-4.99-3.791-7.515 0-.073-.141-.214-.214-.281h-.208c0 .067-.214.208-.214.28-.068-.14-.349-.421-.349-.494h-.14c-1.334 0-1.688 2.318-2.667 2.318V3.51c-.354.282-.563.771-.563 1.266v.068c0 .073.141.349.209.422h-.63s-1.334.703-1.896 1.052c-1.547.916-3.235 2.177-4.427 3.302-1.266 1.333-2.105 2.88-3.511 4.005l-.213.208c-.417 1.266-2.177 3.162-2.948 4.146.14.281-.49.703-.49.703l.209.209c-.771.562-1.125 1.895-1.547 2.666-.276.422-.698 1.266-.698 1.266l.208.213c-.63.49-1.755 3.157-2.74 5.547l-.067-.073c.14-.067.067-.422-.073-.422-.208 0-.208.355-.068.422-.14.073-.14.355.068.355-.703 1.823-1.333 3.583-1.401 3.583-.776 0-5.339-8.781-6.396-10.61-.49-.979-1.26-1.682-1.682-2.598 0-.141-.354-.698-.422-.771-1.406-2.318-2.807-4.844-4.354-7.162.14-.213-1.756-2.74-2.532-2.74-.979 0-.911 2.037-1.052 2.527-.208.776-1.052 1.265-1.265 2.11-.698 3.02-.912 5.895-1.474 9.056-.141 1.407-.422 2.532-.563 4.146 0 .35.214 1.052-.208 1.474.208 3.792-.422 7.656-.422 11.448v.208c0 .141.208 1.125.208 1.266 0 .073-.208.422-.208.422v.214c0 2.177-.422 7.583 2.458 8.005h.703v-.985s.209-.208.349-.14c0 0 .141.49.214.703v.208l1.052-.911-.208-.209v-.14c.067-.073.416-.563.416-.636l.422-1.052-.422.209v-.209c0-.49.704-.703.844-1.265.281-.985.917-2.526.917-3.578h-.281c.349-1.407.77-2.178.838-3.724h-.417c0-.073.068-.073.068-.141l.068-.073c.354-.49.917-1.333.917-1.896 0-.068-.214-.562-.214-.63 0-.073.422-.703.422-.844.281-1.474.354-3.724.354-5.265.281 0 .698-.073.839-.422-.068.703.635 2.317 1.057 2.807l.63.422c.354.703-.281.911.49.911 0 0-.068.214-.068.282.068 0 .422.354.422.421.14.282.771 1.407.844 1.688l.421.208c.422.844 2.178 4.146 3.089 4.146 0 1.193 3.37 4.703 4.286 4.844-.072-.417.209-.417.417-.417.422 0 .422.276.703.276h.141c0-.067.354-.208.422-.208.073 0 .354.14.354.208.068 0 .557.14.63.14-.073-.416.068-.978.49-1.26.073.282.213.282.422.282a.692.692 0 0 0 .213-.073c1.964-.912 1.261-1.266 1.823-2.74.422-1.052.776-.984.563-2.458l.281.281c.984-3.443 2.25-6.599 3.302-9.9 0-.074.068-.215.14-.49 0 .067-.072.067-.14.067-.141 0-.141-.422 0-.422Z" class="Vector"/>
        </g>
      </g>
      <g class="Letter e in welcome">
        <g class="Group">
          <path fill="#BFDBFE" d="M256.606 40.661c.141-.28-.281-2.317-.208-2.599.141-.348.068-1.541.422-1.682h-.495c0-.495.422-.495-.349-.844l-.562.63v-.208c.073-.14.281-.776.349-.843-.349.349-.558 1.192-1.261 1.265v-.213c.141-.209.563-1.125.703-1.266-.073 0-.213-.14-.213-.208h-.141c-.984 0-2.036.703-2.807 1.265l-.563.63h.209l-.422.422c0-.067-.068-.14-.068-.14-.489.562-1.052 1.193-1.052 1.193l.208-.422c-.489.073-.421.28-.562.635-.349.49-.422.068-1.12.422-.141.14-.703.63-.776.838v-.208c-.49.14-1.474.912-1.755 1.333v-.28c-.771.635-2.037 1.405-3.089 1.405h-.213a4.624 4.624 0 0 0-1.474-2.036h.495c0-.214-.141-1.266-.282-1.266h-.213v-1.682h-.281c0-1.057-.209-1.48-.209-2.318h-.14v-.213c0-.068.208-.35.208-.35l-.208-.213c0-.067.208-.422.208-.49 0 0 .073-.28.073-.353h-.495V28.65l.214-.422 2.739-1.12c1.401-.494 8.776-4.354 8.776-6.109 0-.703-.422-.917-.984-.917v-.208c-.208 0-.979-.073-1.12-.073l-.213-.208c-.563 0-3.021.843-3.37 1.125-.073 0-.349.349-.422.416-.068 0-.49-.208-.563-.208-.14 0-.911.281-1.052.422v-.214c-.843.844-2.807.214-3.37 1.48.068-.282-.14-.563-.213-.703V18.4c0-.073-.208-.776-.208-.844v-.14c0-.073.14-.214.208-.214v-2.807l.213-.209-.213-.213V12.5c0-.073-.208-.563-.208-.63 0-.703.489-1.125 1.125-1.48-.073-.067 0-.348.135-.348.073 0 .141.067.141.208l.281-.208.073-.073c.068 0 .14.073.14.073l.209.208c.073 0 .422-.14.422-.208l-.209-.214s.985.14 1.052-.208l.209.208c.213-.698 3.234-1.682 5.13-2.385-.073.14 0 .281.141.281.14 0 .208-.214.067-.349.776-.281 1.266-.495 1.339-.703 2.594-1.266 5.193-2.25 7.791-3.516.563-.276.777-1.26.777-1.682h-.777l.636-.422-.214-.213h-2.807c.141-.068.984-.141 1.125-.49-.213-.281-.562-.349-.984-.349-.776 0-1.688 0-2.25.563V.349h-.979c-.073 0-4.006.911-5.62 1.333-1.615.282-5.62 1.615-6.953 2.672l-.636.63c-.208.141-1.963.563-2.245.985-.073-.214-.354-.985-.843-.985-.068 0-.422.209-.49.209 0 0-.141-.068-.213-.068v-.208c-1.053 0-2.667 2.458-2.881 3.229-.14.422-.562 2.666-.698 3.088-.14.985-.562 2.25-.562 3.162 0 .067.141.63.141.63 0 .14-.141.281-.214.281v1.615l-.349.281c.281 2.672-.844 5.057-.703 7.938-.281.213-.214.63-.214.984 0 .703.282 1.333.282 2.104 0 .214.073.563-.282.636v1.474l-.208.208c.208.635.208.844.208 1.479 0 .63-.208 1.193-.208 1.823v.073c.068 0 .208.208.208.208v.14c0 .423-.14 1.548-.208 1.688 0 .068-.208.563-.208.63 0 1.829.63 9.13 1.896 10.678.208.208 1.401 1.4 1.755 1.682.067 0 .349.213.349.213.635.563.14.422 1.125.844.349.14.984.422.984.422v.14c.281-.14.422-.14.703-.14h.209c.14 0 .703.276.703.349l-.141.208c.141.282.911.563.911.917h.355v.14c1.052 0 2.104.423 3.229.423h.562c.068 0 10.672-4.636 13.552-11.803Z" class="Vector"/>
        </g>
      </g>
      <g class="Group">
        <g class="Group">
          <path fill="#BFDBFE" d="M290.665 41.365c-.141 0-.141.14-.141.208 0 .14 0 .213.141.213.073 0 .14-.072.14-.213.282 1.266.422 1.406 1.193 1.406l-.068-.068c0-.14.068-.28.209-.28.073 0 .14.14.14.208 0 .072 0 .14-.067.213h.14c.703.349.771 1.542 1.756 1.542v-1.755l.208-.209.422.844h.213c0-.917.631-1.62 1.266-1.901l.417-.417c.916-1.76 1.479-7.026 1.479-9.13 0-.073-.214-.422-.214-.422v-.281c0-.563.073-.844.214-1.406v-5.76c.208-.282.281-.49.281-.84 0-.14 0-.354-.281-.421.281-.636.208-1.266.208-2.39v-2.949c0-.073.214-.776.214-.843 0-.073-.141-.35-.214-.422V8.917c0-.068 8.849-.912 11.521-2.386v-.213c-.073-.068-.354-.14-.495-.209.354-.14 1.755-1.406 1.896-1.474-.349 0-.422-.14-.422-.354 0-.281.073-.984.495-.984v-.98c-.703 0-1.193.35-1.266.912 0-.49.209-.844.209-1.333h-2.386l-.208-.214s-4.495-.349-6.396-.422c-.276 0-1.823.073-2.875.073-1.687 0-2.318-.494-3.443-.494-2.458 0-13.625.776-13.625 4.776 0 1.057 1.547 2.317 1.547 2.88.209-.209.276-.281.349-.281.141 0 .208.072.49.072 0 .068-.068.068-.068.141l.068.068s.14.213.213.213c.141-.073.422-.28.63-.28l.214.067-.422.213h.63v.141c-.281 0 5.688.349 5.688 1.052 0 1.052-.349 2.037-.422 3.02-.422 4.985-1.052 10.043-1.052 14.96 0 .562.281 1.124.281 1.124 0 .35-.281.422-.281.985 0 .49.281.838.281 1.26v.354l-.208.209c0 .072.14.354.208.421v.422h.349c-.417.49-.417.912-.417 1.474 0 .703.209.63.209 1.193 0 .213 0 .495-.141.562 0 0 .281.355.349.422v.214l-.208.208c0 .912.63 1.474.63 2.39v.277l.422-.209-.422.63c.141.282.214.917.422 1.548Z" class="Vector"/>
        </g>
      </g>
      <g class="Group">
        <g class="Group">
          <path fill="#BFDBFE" d="M341.301 32.026c.703-.214 1.333-8.64 1.333-9.552 0-.281-.067-.984-.067-1.057l-.214-.417v-1.198c0-6.036-3.021-17.276-10.812-17.276-.844 0-1.547.14-1.547.984 0 .068.073.209.073.35-4.776.635-7.87 2.671-10.61 6.53h-.208l-.422.844-.208-.208c-3.021 4.495-4.495 11.026-4.495 16.432 1.052 9.344 2.385 11.938 3.229 13.063.208.281.984.213 1.052.635.073.63.214 1.615.63 2.037 0-.14.073-.354.214-.354.068 0 .14.14.14.213 0 .14-.072.208-.14.208h-.073a.99.99 0 0 0 .495.141v.703c0 .985 2.245 1.474 2.245 1.896v.073l.421-.495c.355.14.282 1.193.844 1.193.073 0 .141 0 .281-.068l-.208.208c.135.141.276.214.417.214.213 0 .354-.073.635-.073v.214c.349 0 1.052 0 1.052.28l-.208.21h.838v.14c.141 0 .704.073.844.073l3.584.416c5.057-.697 8.916-6.53 10.885-16.359Zm-21.208-10.255v-3.162c.421-.422.421-2.104.63-2.74.63-2.317 2.177-4.702 3.583-6.739l-1.265 1.26c.348-2.104 3.302-3.718 4.848-4.703v-.14c0-.214.349-.281.558-.281h.354l-.214.208h.422c.703 0 1.407.213 2.11.422l-.214.213c4.214 1.052 4.427 9.834 4.427 13.063v2.666c-.562 1.615-.354 3.162-.844 4.85l-.63 2.104c-.073.073-.213.421-.213.421 0 .073.14.214.213.214l-.703.703c.281 0 .281.276.281.49 0 .703-.916 1.192-.916 1.755l.213.281h-.213c-.349 0-.417.14-.417.422 0 .14 0 .35.208.422-.843.703-.422 1.964-1.614 2.385 0 .073.067.141.067.141 0 .214-.421.214-.562.214 0 .067.073.421.073.49-.073.072-.208.28-.49.489v.14c0 .141-.073.214-.14.214-.073 0-.141-.073-.141-.14-.495.421-1.057.702-1.125.702l-1.125 1.053s-.068.072-.141.072c-.911 0-1.822-.916-2.458-1.546-.068-.073-.068-.073-.141-.141l-.208-.214c-3.724-3.791-4.213-10.672-4.213-15.588Zm10.39 25.354c-.067.068-.281.14-.557.14-.214 0-.495-.072-.495-.14 0-.073.281-.073.495-.073.276 0 .557 0 .557.073Zm2.672-2.177c-.141.208-.354.349-.635.422.14-.214.422-.281.635-.422Z" class="Vector"/>
        </g>
      </g>
      <g class="Group">
        <g class="Group">
          <path fill="#BFDBFE" d="M352.323 50.984c.141 0 .141.141.141.282.844-1.26.844-3.438.844-5.125v-.844c0-.771-.703-2.104-1.964-2.104-3.161 0-3.093 2.177-4.218 3.088-.276 1.266-.276 2.037-.276 3.23 0 .213.067 1.192.067 1.473.073-.067.281-.208.349-.208 0 0 .214.14.214.208.14 0 .984 1.198.984 1.266v.073c.141-.14.281-.14.422-.14h.49v.067c.421 0 .489.281.911.281h.281c.776-.422 1.474-.703 1.828-1.192h-.073c-.14 0-.14-.073-.14-.141 0-.14 0-.214.14-.214Z" class="Vector"/>
        </g>
      </g>
      <g class="Group">
        <g class="Group">
          <path fill="#BFDBFE" d="M362.998 50.984c.141 0 .141.141.141.282.843-1.26.843-3.438.843-5.125v-.844c0-.771-.703-2.104-1.963-2.104-3.162 0-3.094 2.177-4.219 3.088-.276 1.266-.276 2.037-.276 3.23 0 .213.068 1.192.068 1.473.073-.067.281-.208.349-.208 0 0 .213.14.213.208.141 0 .985 1.198.985 1.266v.073c.14-.14.281-.14.421-.14h.49v.067c.422 0 .49.281.911.281h.282c.776-.422 1.474-.703 1.828-1.192h-.073c-.141 0-.141-.073-.141-.141 0-.14 0-.214.141-.214Z" class="Vector"/>
        </g>
      </g>
      <g class="Group">
        <g class="Group">
          <path fill="#BFDBFE" d="M373.672 50.984c.141 0 .141.141.141.282.844-1.26.844-3.438.844-5.125v-.844c0-.771-.703-2.104-1.964-2.104-3.161 0-3.094 2.177-4.219 3.088-.276 1.266-.276 2.037-.276 3.23 0 .213.068 1.192.068 1.473.073-.067.281-.208.349-.208 0 0 .214.14.214.208.14 0 .984 1.198.984 1.266v.073c.141-.14.281-.14.422-.14h.489v.067c.422 0 .49.281.912.281h.281c.776-.422 1.474-.703 1.828-1.192h-.073c-.14 0-.14-.073-.14-.141 0-.14 0-.214.14-.214Z" class="Vector"/>
        </g>
      </g>
    </g>
  </g>
</svg>
